<?xml version="1.0" standalone="no"?>
<!DOCTYPE svg PUBLIC "-//W3C//DTD SVG 20010904//EN"
 "http://www.w3.org/TR/2001/REC-SVG-20010904/DTD/svg10.dtd">
<svg version="1.0" xmlns="http://www.w3.org/2000/svg" viewBox="0 0 2400.000000 2400.000000"
 preserveAspectRatio="xMidYMid meet">
<metadata>
Created by potrace 1.15, written by Peter Selinger 2001-2017
</metadata>
<g transform="translate(0.000000,2400.000000) scale(0.100000,-0.100000)"
fill="#FFF" stroke="none">
<path d="M7090 18609 c-2698 -1809 -4906 -3292 -4907 -3296 -2 -7 4058 -2647
4083 -2655 10 -3 4894 3282 4893 3292 0 3 -432 288 -960 635 -529 346 -962
632 -964 635 -1 3 591 402 1316 888 l1319 883 2857 -1896 c1572 -1043 2863
-1902 2870 -1908 9 -9 -1072 -739 -4703 -3177 -2592 -1740 -4714 -3168 -4714
-3171 0 -5 2019 -1348 2040 -1357 5 -2 11738 7805 11759 7824 3 3 -4 13 -15
24 -20 20 -9941 6560 -9959 6565 -5 2 -2217 -1477 -4915 -3286z"/>
<path d="M19743 20541 c-1118 -741 -2035 -1350 -2038 -1353 -5 -5 2012 -1374
2040 -1384 5 -2 469 306 1030 685 l1020 689 3 1356 c2 1082 0 1356 -10 1355
-7 0 -928 -607 -2045 -1348z"/>
<path d="M7895 12612 c-3228 -2150 -5870 -3915 -5870 -3922 0 -18 9964 -6583
9980 -6576 16 6 9764 6539 9796 6565 21 17 -4 34 -2017 1341 -1121 728 -2045
1324 -2054 1324 -13 1 -4843 -3245 -4878 -3278 -10 -10 189 -144 953 -646 530
-349 961 -637 957 -641 -20 -18 -2624 -1759 -2631 -1759 -5 0 -1243 820 -2752
1821 -1509 1002 -2799 1857 -2867 1902 -68 44 -119 84 -114 89 4 4 2125 1429
4712 3166 2587 1737 4705 3162 4706 3167 3 10 -2006 1344 -2035 1351 -9 3
-2403 -1585 -5886 -3904z"/>
<path d="M3133 5507 l-1023 -691 0 -1358 c0 -747 2 -1358 4 -1358 6 0 4069
2690 4083 2704 10 9 -214 165 -1008 701 -561 380 -1024 691 -1027 692 -4 1
-467 -310 -1029 -690z"/>
</g>
</svg>
