<?xml version="1.0" encoding="utf-8"?>
<!-- Generator: Adobe Illustrator 22.1.0, SVG Export Plug-In . SVG Version: 6.00 Build 0)  -->
<svg version="1.1" id="Layer_1" xmlns="http://www.w3.org/2000/svg" xmlns:xlink="http://www.w3.org/1999/xlink" x="0px" y="0px"
	 viewBox="0 0 1000 617" style="enable-background:new 0 0 1000 617;" xml:space="preserve">
<style type="text/css">
	.st0{fill:none;stroke:#000000;stroke-miterlimit:10;}
</style>
<path class="st0" d="M115,915.1v207.5l87.3,1l87.7,0.2v-55.1v-55.1h11h11l1,55l0.3,54.8l7.3,0.3l7.4,0.3l1-82.8v-83.6l17.8,1
	l18.2-0.2v82.6v82.6h83.5H532V915.1V706.6H323H114L115,915.1z M360.6,749.3c29.6,7.4,54.8,22.7,74.2,44.8
	c5.6,6.5,18.2,23.8,18.2,25.2c0,0.3-4.4-3.9-9.7-9.2c-26.2-26-58.1-39.4-94.3-39.5c-27.7,0-51.8,7.3-74.9,22.8
	c-7,4.7-24.6,20.3-23.8,21.1c0.2,0.3,6.2-0.3,13.3-1.1c28.6-3.4,65.9-2.9,94.9,1.1c57.4,8,105.5,28.3,133.6,56.3
	c11.1,11.2,17.9,21.5,22.2,33.9c2.6,7.3,3,10.3,3.1,18.7c0.1,11.5-1.3,18-5.9,28.2c-8,17.5-21.4,31.8-42.5,45.5
	c-8.6,5.6-25.1,14.3-33.8,17.8c-2.6,1-6.5,2.6-8.7,3.4c-5,2.1-3.8,1,9.5-7.6c19.2-12.5,35.8-32.2,41.1-48.8c3-9.1,3.6-24.5,1.5-33
	c-11.8-47.4-75.5-83.7-165.1-94.2c-12.2-1.4-65.4-1.5-74.5-0.1l-5.4,0.8l-4.8,9c-5.9,11.2-10.3,22.9-13.5,36.5
	c-3.7,15.6-4.3,40.9-1.5,57.5c3.7,21.6,11.2,40.4,23.4,58.6c6.6,9.9,23.3,27.6,30.6,32.4c5.6,3.7,4.7,4.3-1.5,1.1
	c-18.5-9.3-42.4-30.8-54.1-48.5c-11.6-17.6-18.8-35.1-23.3-56.1c-1.9-8.6-2.3-13.8-2.3-29c-0.1-20.1,1.4-31.3,6.1-46.3
	c1.3-4.4,2.2-8.1,2-8.3c-1.9-1.9-41.4,11.7-58.1,20c-8,3.9-13.9,6.5-13.3,5.8c2.1-2.6,17.1-13.9,24-18.1
	c13.6-8.3,37.5-19.1,51.3-23.1c3.2-1,4.5-2.1,6.4-5.7c10.2-19.3,28.3-39.2,47-51.7c15.6-10.5,36.3-18.9,53-21.6
	c4.1-0.6,8.2-1.3,9-1.5s9.4-0.2,19,0C347.6,746.7,352.2,747.2,360.6,749.3z"/>
</svg>
