<?xml version="1.0" standalone="no"?>
<!DOCTYPE svg PUBLIC "-//W3C//DTD SVG 20010904//EN"
 "http://www.w3.org/TR/2001/REC-SVG-20010904/DTD/svg10.dtd">
<svg version="1.0" xmlns="http://www.w3.org/2000/svg"
 width="1600.000000pt" height="613.000000pt" viewBox="0 0 1600.000000 613.000000"
 preserveAspectRatio="xMidYMid meet">
<metadata>
Created by potrace 1.15, written by Peter Selinger 2001-2017
</metadata>
<g transform="translate(0.000000,613.000000) scale(0.100000,-0.100000)"
fill="#FFF" stroke="none">
<path d="M2710 6115 c-157 -20 -352 -59 -494 -100 -65 -19 -121 -36 -123 -39
-5 -5 385 -1186 396 -1198 4 -4 36 1 71 12 166 51 274 65 505 65 191 0 235 -3
334 -23 288 -59 546 -176 771 -351 325 -253 544 -597 650 -1018 6 -24 12 -43
15 -43 2 0 279 56 615 125 337 69 616 125 620 125 9 0 10 -3 -29 155 -210 849
-806 1589 -1597 1983 -306 153 -598 244 -949 298 -143 23 -632 28 -785 9z"/>
<path d="M892 5233 c-493 -497 -796 -1124 -877 -1818 -20 -171 -20 -529 0
-700 82 -697 387 -1328 883 -1824 130 -130 134 -133 152 -115 10 11 201 226
424 478 l405 459 -107 111 c-258 267 -416 583 -484 966 -17 100 -17 450 0 550
44 249 127 470 253 673 72 116 131 190 240 302 l98 100 -415 470 c-229 259
-422 471 -430 473 -8 2 -72 -54 -142 -125z"/>
<path d="M10912 3433 l3 -1888 23 -75 c39 -127 87 -206 182 -300 47 -47 108
-97 136 -113 61 -32 671 -287 688 -287 10 0 321 710 321 734 0 6 -124 61 -275
122 l-275 111 -3 1791 -2 1792 -400 0 -400 0 2 -1887z"/>
<path d="M8425 4505 c-608 -98 -1078 -443 -1355 -995 -275 -548 -274 -1146 2
-1698 53 -108 75 -142 87 -139 28 7 3356 1458 3365 1467 17 17 -109 305 -208
474 -134 227 -331 441 -528 572 -208 139 -467 248 -713 300 -103 22 -151 27
-340 30 -159 2 -245 -1 -310 -11z m405 -785 c188 -30 363 -124 514 -279 l60
-60 -35 -15 c-19 -8 -396 -170 -838 -360 -442 -191 -807 -344 -810 -340 -12
12 -2 221 14 299 59 281 235 510 493 639 200 100 425 143 602 116z"/>
<path d="M13995 4513 c-154 -18 -405 -70 -422 -87 -3 -3 56 -189 131 -414
l137 -409 66 18 c326 91 694 -3 947 -241 131 -123 232 -285 280 -451 23 -82
25 -84 53 -81 15 2 203 39 416 83 214 43 391 79 394 79 13 0 -10 102 -52 228
-260 776 -981 1290 -1797 1281 -68 -1 -136 -4 -153 -6z"/>
<path d="M12844 3978 c-100 -103 -177 -197 -246 -302 -414 -628 -408 -1458 13
-2082 81 -121 255 -319 301 -345 14 -7 61 41 274 278 141 159 270 302 287 320
l30 32 -74 79 c-115 124 -199 277 -243 442 -24 87 -32 308 -16 407 32 199 123
381 267 533 36 39 62 74 58 80 -17 27 -559 625 -569 628 -6 1 -43 -30 -82 -70z"/>
<path d="M4820 2668 c-88 -351 -246 -635 -485 -873 -255 -256 -569 -423 -936
-497 -99 -20 -144 -23 -334 -23 -231 0 -339 14 -505 65 -35 11 -67 16 -71 12
-11 -12 -401 -1193 -396 -1198 11 -11 249 -75 367 -98 232 -47 388 -59 675
-53 328 6 542 39 822 123 936 283 1687 1003 2008 1925 52 149 116 391 106 400
-3 4 -276 61 -606 128 -330 68 -608 125 -617 127 -13 4 -19 -5 -28 -38z"/>
<path d="M15137 2371 c-37 -143 -128 -299 -245 -423 -251 -264 -630 -371 -982
-279 l-71 19 -8 -21 c-43 -117 -264 -797 -260 -801 9 -9 190 -55 284 -71 126
-23 367 -30 500 -16 308 33 597 137 850 305 353 236 606 566 740 969 52 157
64 214 44 222 -22 7 -802 165 -819 165 -11 0 -21 -22 -33 -69z"/>
<path d="M9520 1990 c-138 -176 -356 -308 -616 -372 -118 -29 -316 -31 -419
-4 -91 23 -219 85 -283 136 -28 22 -54 40 -57 40 -6 0 -444 -655 -452 -675 -7
-19 108 -92 250 -160 410 -196 844 -234 1271 -114 326 92 610 254 832 474 105
105 234 264 234 290 0 11 -671 465 -688 465 -5 0 -37 -36 -72 -80z"/>
</g>
</svg>
