<?xml version="1.0" standalone="no"?>
<!DOCTYPE svg PUBLIC "-//W3C//DTD SVG 20010904//EN"
 "http://www.w3.org/TR/2001/REC-SVG-20010904/DTD/svg10.dtd">
<svg version="1.0" xmlns="http://www.w3.org/2000/svg"
 width="450.000000pt" height="456.000000pt" viewBox="0 0 450.000000 456.000000"
 preserveAspectRatio="xMidYMid meet">
<metadata>
Created by potrace 1.15, written by Peter Selinger 2001-2017
</metadata>
<g transform="translate(0.000000,456.000000) scale(0.100000,-0.100000)"
fill="#000000" stroke="none">
<path d="M560 4541 c-226 -61 -414 -224 -504 -439 -59 -139 -56 -44 -56 -1815
0 -1815 -5 -1694 70 -1852 91 -196 249 -334 465 -407 l70 -23 1610 -3 c1762
-3 1686 -5 1829 55 206 86 377 280 435 494 21 75 21 81 19 1755 l-3 1679 -31
81 c-93 241 -283 414 -522 475 -73 18 -127 19 -1696 18 -1515 0 -1625 -1
-1686 -18z m170 -3021 l0 -760 -177 2 -178 3 -3 758 -2 757 180 0 180 0 0
-760z m670 570 l0 -190 105 0 105 0 0 -130 0 -130 -105 0 -105 0 0 -252 c0
-221 2 -257 18 -287 28 -56 59 -73 136 -72 l67 0 -3 -131 -3 -131 -40 -15
c-24 -8 -79 -14 -140 -15 -85 0 -109 3 -162 25 -70 28 -109 58 -145 108 -63
90 -78 187 -78 521 l0 249 -80 0 -80 0 0 130 0 130 80 0 80 0 0 190 0 190 175
0 175 0 0 -190z m2433 35 l-148 -155 -117 0 c-80 0 -118 4 -118 11 0 6 15 32
33 58 19 25 64 90 101 144 l67 97 165 0 165 0 -148 -155z m-1340 -214 c157
-43 248 -134 303 -301 15 -48 18 -105 22 -453 l4 -398 -148 3 -147 3 -12 43
c-23 77 -25 79 -38 61 -27 -36 -112 -90 -170 -107 -185 -57 -357 -24 -463 90
-59 64 -86 126 -92 214 -11 174 87 314 273 388 77 31 243 63 368 72 78 5 87 8
87 25 0 37 -30 78 -78 106 -45 27 -53 28 -172 28 -115 -1 -132 -3 -215 -33
-49 -18 -97 -35 -106 -38 -12 -4 -21 14 -41 88 -15 51 -30 101 -33 111 -6 14
4 22 50 42 180 80 437 104 608 56z m869 -378 c3 -357 4 -369 25 -409 44 -82
103 -111 203 -102 61 6 120 43 157 100 l28 42 3 368 3 368 174 0 175 0 0 -570
0 -570 -140 0 -139 0 -11 43 c-6 23 -16 58 -22 78 l-10 36 -44 -47 c-87 -93
-202 -134 -358 -128 -84 3 -111 9 -164 33 -74 33 -138 99 -178 182 -46 99 -53
174 -54 576 l0 367 174 0 175 0 3 -367z"/>
<path d="M2320 1293 c-96 -16 -178 -61 -205 -113 -35 -67 -8 -162 54 -195 44
-22 141 -20 196 6 48 22 100 75 116 116 5 13 9 62 9 109 l0 84 -72 -1 c-40 -1
-84 -4 -98 -6z"/>
</g>
</svg>
