<?xml version="1.0" standalone="no"?>
<!DOCTYPE svg PUBLIC "-//W3C//DTD SVG 20010904//EN"
 "http://www.w3.org/TR/2001/REC-SVG-20010904/DTD/svg10.dtd">
<svg version="1.0" xmlns="http://www.w3.org/2000/svg"
 width="1024.000000pt" height="1024.000000pt" viewBox="0 0 1024.000000 1024.000000"
 preserveAspectRatio="xMidYMid meet">
<metadata>
Created by potrace 1.15, written by Peter Selinger 2001-2017
</metadata>
<g transform="translate(0.000000,1024.000000) scale(0.100000,-0.100000)"
fill="#FFF" stroke="none">
<path d="M5199 8511 c-70 -58 -109 -94 -109 -101 0 -4 -13 -22 -29 -39 -34
-36 -84 -119 -84 -138 0 -7 -4 -13 -9 -13 -5 0 -6 -4 -3 -10 3 -5 1 -10 -4
-10 -6 0 -10 -3 -9 -7 1 -5 -3 -18 -10 -30 -6 -12 -14 -32 -16 -45 -3 -13 -5
-24 -7 -25 -1 -2 -2 -6 -4 -10 -1 -5 -5 -15 -8 -23 -38 -89 -61 -444 -38 -585
7 -38 14 -88 17 -110 3 -22 10 -45 15 -51 5 -6 7 -13 4 -16 -7 -7 54 -196 65
-203 6 -4 8 -10 5 -15 -6 -10 144 -310 156 -310 5 0 8 -3 7 -7 -4 -11 35 -73
45 -73 4 0 5 -5 2 -10 -3 -6 1 -13 9 -16 9 -3 14 -10 11 -14 -2 -4 6 -19 19
-33 13 -14 21 -28 19 -31 -3 -3 2 -8 11 -12 9 -3 16 -11 16 -16 0 -15 160
-228 171 -228 5 0 9 -5 9 -11 0 -14 171 -229 182 -229 4 0 8 -7 8 -15 0 -8 9
-20 20 -27 11 -7 20 -16 20 -20 0 -4 37 -56 82 -115 109 -144 223 -319 278
-429 25 -49 47 -91 50 -94 3 -3 6 -11 8 -19 2 -8 10 -30 19 -50 9 -20 17 -39
18 -43 2 -5 4 -10 5 -13 1 -3 4 -9 5 -15 1 -5 4 -12 5 -15 1 -3 3 -9 4 -14 0
-5 4 -12 8 -16 4 -4 4 -13 2 -20 -3 -7 0 -16 5 -20 6 -3 9 -10 6 -14 -2 -5 0
-23 6 -42 32 -105 32 -418 0 -528 -6 -18 -10 -36 -9 -40 1 -3 -2 -15 -6 -26
-4 -11 -13 -33 -18 -50 -19 -53 -62 -150 -75 -165 -79 -98 -126 -146 -170
-169 l-22 -11 -4 167 c-4 186 -8 215 -39 306 -35 104 -172 359 -207 387 -3 3
-12 17 -20 32 -7 14 -26 40 -42 58 -16 17 -29 36 -29 41 0 5 -7 12 -15 15 -8
4 -15 12 -15 18 0 7 -16 29 -35 50 -19 21 -35 41 -35 44 0 6 -332 402 -377
450 -18 19 -33 37 -33 39 0 8 -125 153 -132 153 -5 0 -8 4 -8 10 0 11 -138
194 -151 198 -5 2 -9 8 -9 13 0 12 -99 161 -114 171 -6 4 -8 8 -3 8 4 0 -5 19
-20 43 -23 37 -113 219 -113 232 -1 3 -8 24 -16 47 -37 104 -45 180 -44 386 1
163 -2 202 -13 202 -22 0 -128 -92 -180 -155 -46 -57 -143 -238 -151 -280 -1
-11 -6 -27 -9 -35 -4 -8 -8 -27 -11 -42 -3 -15 -7 -31 -10 -36 -5 -8 -11 -51
-25 -167 -12 -104 -2 -389 15 -417 3 -5 7 -19 8 -31 6 -45 19 -92 30 -106 6
-8 10 -16 9 -18 -2 -1 -3 -4 -2 -5 0 -2 2 -14 5 -27 7 -39 54 -151 107 -254
55 -110 222 -367 237 -367 6 0 10 -5 10 -10 0 -15 80 -120 91 -120 5 0 9 -5 9
-10 0 -14 101 -140 112 -140 4 0 8 -5 8 -11 0 -6 37 -56 83 -112 46 -56 119
-149 162 -207 43 -58 85 -111 94 -117 8 -7 11 -13 7 -13 -8 0 42 -70 59 -82 5
-4 6 -8 2 -8 -9 0 30 -60 46 -71 5 -3 8 -9 8 -13 -1 -3 22 -50 51 -104 29 -53
52 -100 50 -104 -1 -5 3 -8 10 -8 6 0 9 -3 6 -6 -3 -3 4 -31 16 -62 24 -59 37
-95 37 -99 0 -2 9 -33 20 -70 11 -38 22 -81 25 -98 3 -16 7 -41 9 -55 24 -133
21 -341 -4 -429 -6 -18 -10 -36 -9 -40 1 -3 -4 -19 -11 -35 -6 -16 -13 -36
-14 -45 -7 -43 -95 -180 -155 -240 l-66 -66 -7 90 c-6 86 -15 139 -28 160 -3
6 -7 17 -8 26 -7 47 -140 294 -166 311 -7 4 -8 8 -4 8 9 0 -164 257 -199 295
-13 14 -21 25 -18 25 2 0 -35 52 -82 115 -48 63 -91 115 -96 115 -5 0 -6 4 -3
10 3 5 -3 15 -15 22 -11 7 -20 17 -20 21 0 12 -113 157 -122 157 -4 0 -8 6 -8
13 0 7 -16 30 -35 51 -19 21 -35 40 -35 42 0 8 -253 339 -261 342 -5 2 -9 7
-9 11 0 5 -46 77 -103 162 -85 127 -195 317 -189 326 1 2 -6 22 -14 45 -9 24
-17 54 -18 68 -1 21 -5 25 -31 23 -16 -1 -36 -6 -45 -9 -8 -4 -24 -9 -35 -11
-11 -2 -27 -6 -35 -10 -8 -3 -25 -8 -38 -10 -12 -2 -35 -9 -50 -15 -15 -6 -30
-12 -34 -13 -5 -2 -10 -4 -13 -5 -3 -1 -9 -4 -15 -5 -5 -1 -13 -4 -17 -5 -5
-1 -11 -2 -15 -1 -10 1 -317 -108 -343 -122 -11 -6 -28 -12 -38 -14 -10 -2
-31 -10 -47 -18 -17 -9 -32 -15 -35 -16 -10 0 -161 -67 -215 -95 -30 -15 -58
-27 -62 -26 -5 1 -8 -3 -8 -10 0 -6 -3 -8 -7 -5 -7 7 -156 -71 -161 -85 -2 -4
-8 -6 -13 -2 -5 3 -9 0 -9 -5 0 -6 -4 -10 -8 -8 -12 3 -192 -105 -192 -115 0
-5 -5 -6 -10 -3 -6 3 -13 -1 -16 -9 -3 -9 -9 -14 -13 -12 -10 6 -179 -121
-290 -217 -55 -48 -135 -130 -178 -181 -79 -95 -176 -245 -176 -271 0 -8 -4
-15 -7 -15 -8 0 -48 -103 -53 -135 -1 -11 -6 -25 -10 -31 -27 -45 -25 -395 3
-429 5 -7 7 -14 5 -17 -3 -3 0 -18 6 -34 7 -16 14 -37 16 -47 6 -31 75 -177
84 -177 5 0 9 -6 9 -13 0 -15 89 -149 125 -187 13 -14 52 -56 87 -94 69 -75
209 -196 227 -196 6 0 11 -4 11 -9 0 -13 206 -152 214 -144 3 4 6 2 6 -4 0
-10 93 -65 106 -63 4 1 10 -3 13 -8 15 -24 475 -236 531 -245 8 -2 21 -6 28
-10 6 -5 12 -5 12 0 0 4 4 3 8 -3 7 -11 190 -75 227 -80 11 -1 21 -3 23 -4 1
-2 5 -3 10 -5 4 -1 14 -5 22 -8 8 -4 24 -8 35 -10 11 -1 25 -5 30 -9 12 -7
292 -78 326 -82 13 -2 42 -8 64 -14 76 -22 451 -81 640 -101 273 -30 310 -32
723 -38 379 -5 620 4 871 33 69 8 152 17 184 20 32 3 69 9 82 14 12 5 25 7 27
5 5 -6 327 50 411 70 34 8 74 17 88 20 43 6 352 87 379 98 14 6 28 11 33 12 4
2 8 3 10 4 1 2 13 4 27 7 44 8 155 47 161 56 3 5 9 9 13 9 3 -1 8 0 11 0 3 1
10 3 15 4 6 1 11 3 13 5 1 1 10 3 20 5 32 6 227 87 233 96 3 5 10 7 15 4 5 -4
9 -1 9 6 0 7 3 10 6 6 4 -3 19 0 35 9 16 8 31 14 34 14 11 -1 110 53 117 64 4
6 8 7 8 3 0 -10 131 61 141 75 3 6 9 8 11 6 9 -5 194 112 293 187 235 176 406
368 509 572 20 40 33 73 30 73 -4 0 -1 6 5 13 6 8 8 17 4 20 -3 4 -2 7 4 7 6
0 21 37 34 83 21 72 24 103 24 252 0 147 -4 181 -23 250 -54 187 -175 385
-337 549 -94 96 -224 206 -244 206 -6 0 -11 4 -11 10 0 11 -185 135 -255 170
-28 14 -53 30 -57 35 -5 7 -8 7 -8 0 0 -6 -4 -5 -8 1 -10 16 -228 124 -236
117 -3 -4 -6 -1 -6 5 0 7 -3 11 -7 10 -5 0 -35 11 -68 27 -76 35 -224 92 -250
97 -11 1 -22 6 -25 9 -6 8 -139 52 -165 55 -11 1 -21 3 -22 4 -2 2 -6 3 -10 5
-5 1 -21 7 -36 13 -16 7 -32 10 -37 7 -5 -3 -11 -1 -15 5 -4 6 -10 8 -15 5 -5
-3 -11 -1 -14 4 -5 7 -44 18 -96 26 -3 0 -11 4 -17 8 -7 5 -17 6 -22 2 -5 -3
-13 0 -16 6 -4 5 -13 8 -21 5 -7 -3 -16 -1 -19 4 -3 5 -13 9 -23 8 -9 0 -26 3
-37 6 -11 3 -43 11 -72 18 -28 7 -54 16 -57 19 -4 3 1 37 10 75 39 164 -16
443 -134 679 -19 39 -40 73 -46 77 -6 4 -7 8 -3 8 11 0 -34 80 -45 80 -5 0 -7
4 -4 8 3 5 -4 19 -15 30 -10 12 -20 25 -20 29 -1 15 -33 63 -42 63 -4 0 -6 4
-3 9 3 5 -5 20 -18 34 -13 14 -21 28 -19 31 3 3 -2 8 -11 12 -9 3 -16 12 -16
20 0 8 -3 14 -8 14 -4 0 -13 12 -19 28 -7 15 -26 42 -42 60 -17 17 -28 32 -25
32 6 0 -17 31 -249 330 -87 113 -165 210 -173 216 -7 6 -11 14 -8 17 3 3 -3
12 -15 19 -12 7 -21 17 -21 21 0 5 -28 48 -63 96 -35 47 -83 115 -107 151 -24
36 -48 68 -53 71 -5 3 -9 10 -9 15 0 5 -24 52 -53 104 -29 52 -64 120 -76 150
-13 30 -28 58 -33 62 -6 4 -8 8 -4 8 4 0 -1 24 -12 54 -17 49 -41 150 -45 186
-1 8 -2 103 -3 211 -2 217 -3 219 -63 170z"/>
</g>
</svg>
