<?xml version="1.0" encoding="UTF-8"?>
<!DOCTYPE svg PUBLIC "-//W3C//DTD SVG 1.1//EN" "http://www.w3.org/Graphics/SVG/1.1/DTD/svg11.dtd">
<!-- Creator: CorelDRAW X7 -->
<svg xmlns="http://www.w3.org/2000/svg" xml:space="preserve" width="3300px" height="2550px" version="1.1" style="shape-rendering:geometricPrecision; text-rendering:geometricPrecision; image-rendering:optimizeQuality; fill-rule:evenodd; clip-rule:evenodd"
viewBox="0 0 3300 2550"
 xmlns:xlink="http://www.w3.org/1999/xlink">
 <defs>
  <style type="text/css">
   <![CDATA[
    .fil15 {fill:black}
    .fil2 {fill:#24AC64}
    .fil21 {fill:#346D4D}
    .fil7 {fill:#3AC179}
    .fil5 {fill:#4A4647}
    .fil1 {fill:#4DF09A}
    .fil0 {fill:#5A4244}
    .fil12 {fill:#5EECA1}
    .fil20 {fill:#7A7A7C}
    .fil17 {fill:#868887}
    .fil18 {fill:#8B8B8C}
    .fil14 {fill:#9B9B9C}
    .fil19 {fill:#A3A3A4}
    .fil13 {fill:#ADB4B6}
    .fil9 {fill:#BEFBDA}
    .fil16 {fill:#D4D6D6}
    .fil10 {fill:#E2E5E6}
    .fil11 {fill:#E5B4AD}
    .fil8 {fill:#F5CDC7}
    .fil4 {fill:#F7CDC8}
    .fil3 {fill:#F7CEC8}
    .fil6 {fill:#FEFEFE}
   ]]>
  </style>
 </defs>
 <g id="Camada_x0020_1">
  <metadata id="CorelCorpID_0Corel-Layer"/>
  <g id="_1371740640">
   <path class="fil0" d="M921 2309c7,-8 11,-20 17,-29l59 -83c27,-37 52,-73 79,-111 27,-37 52,-74 79,-110l77 -107c2,-2 1,-1 3,-2l13 -19c13,-26 89,-119 113,-145 7,-8 15,-19 23,-28l53 -51c52,-45 123,-88 188,-120 21,-10 53,-22 72,-33 4,-14 24,-22 37,-31 14,-9 27,-18 41,-27 14,-9 75,-47 82,-55 7,-30 14,-53 18,-86 3,-26 3,-80 8,-99 -8,-2 -2,4 -11,-20 -7,-20 -22,-43 -34,-59 -55,-70 -125,-149 -122,-252 1,-41 19,-61 34,-90 53,-95 77,-187 69,-301 13,6 40,43 113,69 58,20 95,19 158,22 97,4 204,19 274,88 17,17 18,38 22,67 4,27 7,55 9,82 7,133 -19,350 -115,427 8,11 14,23 22,34 9,13 16,25 24,37 7,11 41,65 48,70 43,3 106,-14 144,-26 43,-13 71,-25 111,-39l11 -4c2,-2 2,-2 4,-3l-27 -55c-28,-60 -48,-128 -48,-195 1,-14 1,-27 1,-41l-5 -75c-1,-13 1,-28 0,-40 -4,-37 -6,-70 -11,-109 -2,-12 -5,-26 -6,-37 -2,-13 -5,-23 -7,-33 -3,-12 -5,-22 -8,-33 -15,-55 -41,-122 -75,-168 -24,-30 -49,-58 -81,-82 -8,-5 -16,-12 -24,-16 -5,-3 -7,-4 -12,-8 -31,-20 -17,-21 -50,-53l-30 -30c-43,-40 -114,-79 -168,-95 -21,-6 -41,-12 -65,-16 -91,-16 -207,-5 -290,19 -21,6 -39,14 -58,23 -25,13 -51,30 -73,48 -16,13 -29,23 -44,38 -24,26 -35,38 -56,67 -6,8 -10,15 -16,24l-44 79c-36,82 -58,159 -72,251 -8,48 -11,94 -15,146 -4,53 -28,103 -57,146 -4,6 -4,6 -9,11 -5,5 -5,6 -9,11l-33 28c-6,4 -6,4 -12,8 -28,18 -58,26 -77,43 -47,42 -43,85 -25,156 11,42 28,84 28,135 0,31 -3,46 -13,67 -16,30 -37,56 -60,81 -5,4 -5,6 -9,11 -13,15 -27,28 -40,42l-31 34c0,1 -1,2 -2,3 -65,75 -151,173 -111,284 7,20 18,35 25,56 10,33 9,73 3,107 -18,89 -87,169 -7,202z"/>
   <path class="fil1" d="M2644 1275c-2,1 -2,1 -4,3l-11 4c-40,14 -68,26 -111,39 -38,12 -101,29 -144,26 2,9 22,37 29,47 8,12 21,36 32,43 14,3 17,21 20,33 9,15 19,46 26,63l76 191c24,60 43,78 12,90l-158 63c-124,49 -258,105 -381,153 -47,18 -30,4 -72,-88 -6,5 -13,19 -19,27 -22,26 -37,28 -52,44 -6,6 -8,7 -14,11 -5,6 -7,9 -12,13l-25 22c-7,6 -16,14 -25,23l-37 35c-3,3 -2,2 -6,5l-7 7c5,9 12,20 18,29l49 90c19,37 43,87 56,129 6,18 12,35 18,53 34,99 43,172 57,274 9,63 6,119 8,177l0 12c180,79 473,20 660,-28 65,-17 135,-36 197,-58l-7 -24c0,-6 -7,-23 -9,-29l-61 -218c-6,-21 -10,-40 -15,-62 -13,-48 -40,-164 -24,-206 25,-66 69,-112 98,-219 18,-65 13,-138 -16,-201l-21 -39c-3,-6 -5,-8 -8,-13 -12,-11 -39,-58 -116,-118 -104,-81 -26,-90 23,-108l116 -42c12,-3 27,-9 41,-14 8,-3 11,-4 20,-7 10,-3 14,-2 19,-10 -19,-11 -47,-96 -53,-127 -6,-25 -10,-51 -11,-78 -2,-30 2,-58 1,-87l-96 45c-18,7 -46,20 -61,25z"/>
   <path class="fil2" d="M1967 2881c-2,3 0,0 -2,5 -4,22 -7,71 -18,109 -5,18 -8,37 -13,54 -5,17 -10,35 -15,51l-37 98c-15,38 -35,76 -55,112l-37 64c-19,30 -31,51 -53,80 -10,13 -19,26 -28,39l-54 66c-1,1 -1,1 -2,1l-36 42 1671 0c-47,-41 -60,-56 -97,-104l-33 -47c-17,-23 -33,-51 -48,-73 -18,-27 -42,-73 -58,-102 -26,-44 -89,-168 -110,-214l-75 -166c-8,-19 -16,-36 -24,-56 -5,-11 -8,-18 -12,-28l-14 -29 7 24c-62,22 -132,41 -197,58 -187,48 -480,107 -660,28l0 -12z"/>
   <path class="fil3" d="M3502 143c1,10 3,15 4,23l0 53c-3,28 -20,139 -31,163 -2,6 -5,12 -8,19 -3,9 -5,12 -8,20 -31,72 -70,156 -102,230 -22,50 -42,107 -66,158l-34 75c-14,28 -23,45 -40,72 -8,11 -15,19 -24,30l-14 14c0,1 -1,1 -1,1 -12,10 -72,41 -88,49l-253 135c-12,7 -25,12 -36,20 1,29 -3,57 -1,87 1,27 5,53 11,78 6,31 34,116 53,127l292 -125c68,-32 189,-85 249,-135l35 -34c0,0 1,0 1,-1l30 -37c35,-47 48,-91 64,-146 3,-10 6,-16 8,-27l47 -163c11,-37 20,-71 31,-108 45,-156 49,-173 64,-355 6,-66 -7,-143 7,-196 5,-18 19,-33 22,-51l-198 0c-31,-1 -23,-2 -26,5 6,5 9,10 12,19z"/>
   <path class="fil4" d="M1883 1173l9 7c10,10 52,29 63,33 29,12 80,22 85,26l164 -107c19,-12 22,-8 32,7l44 67c96,-77 122,-294 115,-427 -2,-27 -5,-55 -9,-82 -4,-29 -5,-50 -22,-67 -70,-69 -177,-84 -274,-88 -63,-3 -100,-2 -158,-22 -73,-26 -100,-63 -113,-69 8,114 -16,206 -69,301 -15,29 -33,49 -34,90 -3,103 67,182 122,252 12,16 27,39 34,59 9,24 3,18 11,20z"/>
   <path class="fil3" d="M1820 1672c-55,53 -15,152 -75,229 -16,21 -136,108 -168,135 -14,11 -24,17 -39,25 -5,3 -7,5 -11,7 -7,3 -7,4 -12,8 -8,8 -18,16 -27,20l0 87 -251 161c-1,0 -1,1 -2,1l-24 14c-1,0 -1,0 -2,1l-86 47c-19,12 -44,4 -52,-14l-4 -8c-2,-7 -3,-17 -1,-24 1,-3 6,-11 6,-14 3,-11 -5,-18 -2,-34 2,-7 9,-14 15,-20 0,0 0,0 1,-1 0,0 1,0 1,-1l68 -46c0,0 2,-1 2,-2l70 -46c0,-1 1,-1 1,-1 2,-1 3,-2 6,-3l74 -44c16,-8 12,-19 23,-31l18 -11c8,-5 18,-11 24,-18l-9 -13c-17,-12 -22,-20 -42,-18 -6,1 -11,4 -16,4 -8,1 -1,1 -6,-1 0,0 -1,0 -1,0l-5 -2c-10,-4 -14,-9 -22,-16 -7,-6 -13,-14 -15,-24 -1,-11 -2,-82 2,-93l5 -15 -17 -12c-1,-2 -2,-4 -3,-5 -7,-12 -1,-25 -9,-27 -2,1 -1,0 -3,2l-77 107c-27,36 -52,73 -79,110 -27,38 -52,74 -79,111l-59 83c-6,9 -10,21 -17,29 -2,5 -4,8 -6,13 -18,40 -51,117 -33,158 8,17 23,25 40,34 69,34 162,43 245,15 57,-19 74,-33 120,-63 8,-5 15,-8 24,-14 8,-5 12,-9 22,-13 9,-5 15,-10 23,-15 69,-42 89,-56 154,-103l18 -13c3,-2 2,-1 4,-3l229 -176 7 -7c4,-3 3,-2 6,-5l37 -35c9,-9 18,-17 25,-23l25 -22c5,-4 7,-7 12,-13 6,-4 8,-5 14,-11 15,-16 30,-18 52,-44 6,-8 13,-22 19,-27 3,-13 10,-24 14,-38 3,-14 3,-32 3,-47 0,-16 -6,-86 -2,-93 -6,-4 -3,-4 -5,-13 -1,-26 -13,-63 -44,-58 -6,-24 -16,-16 -33,-11 -13,-20 -18,-24 -40,-8 -3,-2 -1,0 -4,-3 0,0 -2,-2 -2,-2 -12,-7 -18,-2 -25,3z"/>
   <path class="fil1" d="M1248 1848c87,30 197,105 254,182 8,11 16,24 25,38 4,-2 6,-4 11,-7 15,-8 25,-14 39,-25 32,-27 152,-114 168,-135 60,-77 20,-176 75,-229 -1,-10 -53,-86 -63,-101 -10,-17 -60,-85 -60,-100 -19,11 -51,23 -72,33 -65,32 -136,75 -188,120l-53 51c-8,9 -16,20 -23,28 -24,26 -100,119 -113,145z"/>
   <path class="fil5" d="M3502 143c-3,-9 -6,-14 -12,-19 -29,-14 -103,-9 -144,-50 -25,-27 -9,-33 0,-40 -4,-8 -12,-16 -9,-29 3,-12 13,-11 21,-18 -15,-25 -1,-29 12,-34l3 -15c10,-30 85,-29 107,-29 25,0 49,1 74,4 39,4 29,4 58,10l7 -1 -48 -142c-7,-21 -21,-13 -43,-5l-572 197c-11,10 2,35 6,46l50 145c11,31 20,63 32,95 18,46 12,38 76,17l334 -115c9,-3 17,-5 24,-7 8,-3 18,-6 24,-10z"/>
   <path class="fil6" d="M2050 1768c12,-12 17,-9 17,-32l16 -6c8,17 62,142 64,154l-23 8 -49 -115 -19 6 -6 -15zm298 -149l44 102 12 -3 8 18c-1,1 -1,1 -1,2l-6 5c-5,4 5,21 7,27 -5,5 -15,8 -23,10l-11 -27 -45 19c-14,-14 -10,-44 -10,-67 0,-25 0,-50 -1,-75l26 -11zm-192 142l-21 8c-39,-57 30,-91 55,-60 39,50 -11,93 1,130l46 -19 8 21 -69 30c-6,-17 -14,-27 -11,-49 1,-18 10,-33 14,-50 10,-50 -30,-62 -31,-38 -1,8 6,18 8,27zm81 -45l-20 10c-19,-23 -8,-66 33,-65 24,0 49,33 34,69 22,11 20,7 31,31 26,59 -30,68 -46,62 -14,-5 -23,-23 -27,-38l22 -9c12,43 46,28 22,-15 -8,-16 -15,-10 -29,-7l-9 -19c7,-5 31,-7 10,-42 -5,-7 -13,-11 -21,-4 -9,8 -2,18 0,27zm-150 -26c-16,12 -37,23 -57,36 -20,13 -38,26 -57,38 -4,7 2,77 2,93 0,15 0,33 -3,47 -4,14 -11,25 -14,38 42,92 25,106 72,88 123,-48 257,-104 381,-153l158 -63c31,-12 12,-30 -12,-90l-76 -191c-7,-17 -17,-48 -26,-63 -7,-1 -5,1 -12,6l-217 131c-15,9 -32,20 -46,28l-93 55z"/>
   <path class="fil7" d="M2003 1418c7,6 75,111 82,124 -4,5 -171,115 -180,118 -8,-8 -79,-117 -81,-124l179 -118zm218 114c3,-15 -2,-8 -10,-22 8,3 6,5 11,9 6,-3 0,1 6,-6l-1 8c11,4 5,2 9,7 -5,-1 -6,-2 -9,-1l-6 5zm-135 -170l144 -94c15,26 72,107 81,125l-143 94c-4,4 -32,22 -39,25 -11,-24 -75,-111 -80,-126l37 -24zm113 -147c6,6 9,10 11,18 -31,24 -157,101 -198,129l-148 98c-9,6 -41,28 -50,31l-10 -18 395 -258zm-381 209c6,-7 291,-193 321,-211 5,4 9,9 12,18 -14,5 -305,201 -323,209l-10 -16zm27 245c0,0 2,2 2,2 3,3 1,1 4,3 22,-16 27,-12 40,8 17,-5 27,-13 33,11 31,-5 43,32 44,58 12,-4 307,-200 334,-217 13,-9 108,-69 111,-74 2,-12 -3,-16 -8,-23l-88 -135c-18,-27 -33,-50 -51,-77 -58,-89 -42,-89 -97,-52l-129 85c-96,64 -203,131 -300,196 -24,16 -23,17 -7,41l84 129c8,12 22,31 28,45z"/>
   <path class="fil8" d="M1235 1867c8,2 2,15 9,27 1,1 2,3 3,5l17 12 -5 15c-4,11 -3,82 -2,93 2,10 8,18 15,24 8,7 12,12 22,16l5 2c0,0 1,0 1,0 5,2 -2,2 6,1 5,0 10,-3 16,-4 20,-2 25,6 42,18l9 13c-6,7 -16,13 -24,18l-18 11c-11,12 -7,23 -23,31l-74 44c-3,1 -4,2 -6,3 0,0 -1,0 -1,1l-70 46c0,1 -2,2 -2,2l-68 46c0,1 -1,1 -1,1 -1,1 -1,1 -1,1 -6,6 -13,13 -15,20 -3,16 5,23 2,34 0,3 -5,11 -6,14 -2,7 -1,17 1,24l4 8c8,18 33,26 52,14l86 -47c1,-1 1,-1 2,-1l24 -14c1,0 1,-1 2,-1l251 -161 0 -87c9,-4 19,-12 27,-20 5,-4 5,-5 12,-8 -9,-14 -17,-27 -25,-38 -57,-77 -167,-152 -254,-182l-13 19z"/>
   <path class="fil8" d="M3490 124c3,-7 -5,-6 26,-5l198 0c13,-4 32,-127 -84,-189 -8,-4 -5,-1 -11,-8l-7 1c-29,-6 -19,-6 -58,-10 -25,-3 -49,-4 -74,-4 -22,0 -97,-1 -107,29l-3 15c-13,5 -27,9 -12,34 -8,7 -18,6 -21,18 -3,13 5,21 9,29 -9,7 -25,13 0,40 41,41 115,36 144,50z"/>
   <path class="fil9" d="M2040 1239l-91 60c-14,9 -82,56 -92,59 -7,8 -68,46 -82,55 -14,9 -27,18 -41,27 -13,9 -33,17 -37,31 0,15 50,83 60,100 10,15 62,91 63,101 7,-5 13,-10 25,-3 -6,-14 -20,-33 -28,-45l-84 -129c-16,-24 -17,-25 7,-41 97,-65 204,-132 300,-196l129 -85c55,-37 39,-37 97,52 18,27 33,50 51,77l88 135c5,7 10,11 8,23 -3,5 -98,65 -111,74 -27,17 -322,213 -334,217 2,9 -1,9 5,13 19,-12 37,-25 57,-38 20,-13 41,-24 57,-36 8,-9 68,-46 91,-61l230 -150c15,-10 40,-19 24,-40l3 -2c-11,-7 -24,-31 -32,-43 -7,-10 -27,-38 -29,-47 -7,-5 -41,-59 -48,-70 -8,-12 -15,-24 -24,-37 -8,-11 -14,-23 -22,-34l-44 -67c-10,-15 -13,-19 -32,-7l-164 107z"/>
   <path class="fil0" d="M2761 1796l13 -60c8,-54 20,-159 10,-208l-116 42c-49,18 -127,27 -23,108 77,60 104,107 116,118z"/>
   <path class="fil0" d="M1532 2305c8,0 14,-4 22,-7 77,-23 151,-19 224,9 25,9 54,27 74,42 7,5 9,8 16,13 7,5 10,10 16,15 -13,-42 -37,-92 -56,-129l-49 -90c-6,-9 -13,-20 -18,-29l-229 176z"/>
   <path class="fil10" d="M1991 1484l1 -4c22,11 39,24 34,53 -1,-1 -10,-1 -2,-12l-5 10c-1,0 -1,5 0,13 2,-10 -1,-6 6,-12 -4,26 -7,19 -11,22l-3 -5c0,9 -1,11 -5,17 -5,7 -3,5 -10,10 -6,3 -9,5 -14,8 -4,3 -7,4 -10,7l-4 3c-4,3 -31,13 -43,12 -6,-1 -8,-1 -14,-6 -7,-1 -11,-3 -13,-10l-5 -7c-7,-16 -6,-10 -11,-17 0,0 -4,-11 -5,-14l5 -2 -2 -5c9,4 4,4 7,2 -1,-14 0,-12 4,-16l2 -1c0,-1 0,-1 0,-1 0,-1 1,-1 1,-2l4 -5c0,-1 0,-1 0,-2 4,-9 4,-7 12,-13 0,0 1,-1 1,-1l15 -10c4,-3 8,-5 12,-6l16 -6c21,-8 20,-1 30,-6 7,4 4,-4 7,6zm-167 52c2,7 73,116 81,124 9,-3 176,-113 180,-118 -7,-13 -75,-118 -82,-124l-179 118z"/>
   <path class="fil10" d="M2186 1331c30,-5 56,17 57,44 4,67 -101,78 -104,13 -1,-29 21,-52 47,-57zm-100 31c5,9 47,13 72,80 3,7 5,14 6,22 1,14 -1,18 4,23l143 -94c-9,-18 -66,-99 -81,-125l-144 94z"/>
   <path class="fil11" d="M1857 1358c10,-3 78,-50 92,-59l91 -60c-5,-4 -56,-14 -85,-26 -11,-4 -53,-23 -63,-33l-9 -7c-5,19 -5,73 -8,99 -4,33 -11,56 -18,86z"/>
   <path class="fil12" d="M1804 1473l10 18c9,-3 41,-25 50,-31l148 -98c41,-28 167,-105 198,-129 -2,-8 -5,-12 -11,-18l-395 258z"/>
   <path class="fil13" d="M2168 1487c-5,-5 -3,-9 -4,-23 -1,-8 -3,-15 -6,-22 -25,-67 -67,-71 -72,-80l-37 24c5,15 69,102 80,126 7,-3 35,-21 39,-25z"/>
   <path class="fil13" d="M2186 1331c-26,5 -48,28 -47,57 3,65 108,54 104,-13 -1,-27 -27,-49 -57,-44z"/>
   <path class="fil12" d="M1818 1424l10 16c18,-8 309,-204 323,-209 -3,-9 -7,-14 -12,-18 -30,18 -315,204 -321,211z"/>
   <path class="fil14" d="M1953 1548c15,-5 1,5 19,1 -1,1 -2,0 -3,1l-3 2c-1,1 -1,1 -2,1 -6,4 3,3 -8,5 1,0 2,0 2,1 0,2 5,2 1,3l-8 4c-15,-10 3,5 -3,-4 -3,-3 0,-7 3,-15 0,1 -1,1 -2,2 0,1 -2,2 -2,2 -10,5 4,5 -3,0 7,-24 5,-18 16,-20 -6,5 -1,0 -4,9l-2 6c0,0 -1,1 -1,2zm-34 -17l0 -6c6,-1 2,0 6,-10l2 -4c2,1 7,2 8,3 1,0 2,0 2,0l6 3c-1,0 -2,1 -2,1 0,0 0,0 0,1l0 4c8,-4 3,-1 7,-7 0,0 1,-1 1,-1l4 -9 -17 4c5,-5 33,-4 33,-4 3,1 0,-5 1,2 0,1 0,1 0,2l-1 3c0,-1 -3,-2 -3,-2 -1,0 -2,-1 -2,-1 -1,0 -2,0 -2,0 -5,-1 -5,-1 -9,1 0,0 1,0 1,1 2,3 2,-3 9,5 -18,-5 -9,-1 -12,2l-24 10c-5,1 -1,-2 -8,2zm-21 -9c-1,8 2,1 6,12 2,5 -1,8 -7,9 -1,0 -2,-1 -2,-1 0,0 -1,0 -2,0 4,9 5,6 3,16 3,-2 8,0 4,-16 1,1 2,0 3,2l8 3c-2,3 -2,2 0,6l3 5c4,-16 -6,-7 5,-27 1,0 13,-2 1,12 -5,6 -2,-3 -6,6 3,2 11,-2 11,3 0,1 1,-4 0,3 0,0 0,1 0,1 -1,6 -10,5 4,23l0 5c1,6 -2,0 2,4l2 2c7,4 4,2 12,1l-13 6c-5,3 -5,9 -3,3 -5,-4 2,-3 -9,-3l-8 3c0,0 -1,0 -1,0 6,5 8,5 14,6 12,1 39,-9 43,-12l4 -3c3,-3 6,-4 10,-7 5,-3 8,-5 14,-8 7,-5 5,-3 10,-10 4,-6 5,-8 5,-17l-1 -6c-5,2 -6,-3 -7,10 -4,-21 4,-14 4,-15 1,-2 1,-11 1,-20 8,9 1,7 6,9 3,-3 -2,-4 2,-16 -8,6 -7,12 -11,22l-11 12c4,-18 0,-4 -2,-18 0,0 0,-1 0,-1l0 -9c0,-1 0,-1 0,-2l0 -22c-10,11 -5,9 -14,7l-10 -1c16,-11 0,-5 6,-4l6 3 3 -6c4,-11 1,-3 8,-8 -3,-10 0,-2 -7,-6 -10,5 -9,-2 -30,6l-16 6c-4,1 -8,3 -12,6l-15 10c0,0 -1,1 -1,1 -8,6 -8,4 -12,13 0,1 0,1 0,2z"/>
   <path class="fil15" d="M2345 1742l3 -59 20 49 -23 10zm-23 -112c1,25 1,50 1,75 0,23 -4,53 10,67l45 -19 11 27c8,-2 18,-5 23,-10 -2,-6 -12,-23 -7,-27l6 -5c0,-1 0,-1 1,-2l-8 -18 -12 3 -44 -102 -26 11z"/>
   <path class="fil15" d="M2237 1716c-2,-9 -9,-19 0,-27 8,-7 16,-3 21,4 21,35 -3,37 -10,42l9 19c14,-3 21,-9 29,7 24,43 -10,58 -22,15l-22 9c4,15 13,33 27,38 16,6 72,-3 46,-62 -11,-24 -9,-20 -31,-31 15,-36 -10,-69 -34,-69 -41,-1 -52,42 -33,65l20 -10z"/>
   <path class="fil15" d="M2156 1761c-2,-9 -9,-19 -8,-27 1,-24 41,-12 31,38 -4,17 -13,32 -14,50 -3,22 5,32 11,49l69 -30 -8 -21 -46 19c-12,-37 38,-80 -1,-130 -25,-31 -94,3 -55,60l21 -8z"/>
   <path class="fil15" d="M2056 1783l19 -6 49 115 23 -8c-2,-12 -56,-137 -64,-154l-16 6c0,23 -5,20 -17,32l6 15z"/>
   <path class="fil16" d="M2087 1690l93 -55c14,-8 31,-19 46,-28l217 -131c7,-5 5,-7 12,-6 -3,-12 -6,-30 -20,-33l-3 2c16,21 -9,30 -24,40l-230 150c-23,15 -83,52 -91,61z"/>
   <path class="fil17" d="M1991 1484c-7,5 -4,-3 -8,8l-3 6 -6 -3c-6,-1 10,-7 -6,4l10 1c9,2 4,4 14,-7l0 22c0,1 0,1 0,2l0 9c0,0 0,1 0,1 2,14 6,0 2,18l11 -12c4,-10 3,-16 11,-22 -4,12 1,13 -2,16 -5,-2 2,0 -6,-9 0,9 0,18 -1,20 0,1 -8,-6 -4,15 1,-13 2,-8 7,-10l1 6 3 5c4,-3 7,4 11,-22 -7,6 -4,2 -6,12 -1,-8 -1,-13 0,-13l5 -10c-8,11 1,11 2,12 5,-29 -12,-42 -34,-53l-1 4z"/>
   <path class="fil18" d="M1882 1550c5,1 6,-2 7,4l6 16c4,3 5,2 7,3 -4,11 -2,10 5,13 0,-1 3,-6 0,-8 10,6 6,0 10,13 -7,-2 -6,-1 -9,-1 -8,0 2,3 -3,-2l-3 -4c-1,0 -1,-1 -2,-2 -5,6 -2,-1 -2,8 2,7 6,9 13,10 0,0 1,0 1,0l8 -3c11,0 4,-1 9,3 -2,6 -2,0 3,-3l13 -6c-8,1 -5,3 -12,-1l-2 -2c-4,-4 -1,2 -2,-4l0 -5c-14,-18 -5,-17 -4,-23 0,0 0,-1 0,-1 1,-7 0,-2 0,-3 0,-5 -8,-1 -11,-3 4,-9 1,0 6,-6 12,-14 0,-12 -1,-12 -11,20 -1,11 -5,27l-3 -5c-2,-4 -2,-3 0,-6l-8 -3c-1,-2 -2,-1 -3,-2 4,16 -1,14 -4,16 2,-10 1,-7 -3,-16 1,0 2,0 2,0 0,0 1,1 2,1 6,-1 9,-4 7,-9 -4,-11 -7,-4 -6,-12l-4 5c0,1 -1,1 -1,2 0,0 0,0 0,1l-2 1c-4,4 -5,2 -4,16 -3,2 2,2 -7,-2l2 5z"/>
   <polygon class="fil6" points="2368,1732 2348,1683 2345,1742 "/>
   <path class="fil19" d="M1898 1590c0,-9 -3,-2 2,-8 1,1 1,2 2,2l3 4c5,5 -5,2 3,2 3,0 2,-1 9,1 -4,-13 0,-7 -10,-13 3,2 0,7 0,8 -7,-3 -9,-2 -5,-13 -2,-1 -3,0 -7,-3l-6 -16c-1,-6 -2,-3 -7,-4l-5 2c1,3 5,14 5,14 5,7 4,1 11,17l5 7z"/>
   <path class="fil20" d="M1919 1531c7,-4 3,-1 8,-2l24 -10c3,-3 -6,-7 12,-2 -7,-8 -7,-2 -9,-5 0,-1 -1,-1 -1,-1 4,-2 4,-2 9,-1 0,0 1,0 2,0 0,0 1,1 2,1 0,0 3,1 3,2l1 -3c0,-1 0,-1 0,-2 -1,-7 2,-1 -1,-2 0,0 -28,-1 -33,4l17 -4 -4 9c0,0 -1,1 -1,1 -4,6 1,3 -7,7l0 -4c0,-1 0,-1 0,-1 0,0 1,-1 2,-1l-6 -3c0,0 -1,0 -2,0 -1,-1 -6,-2 -8,-3l-2 4c-4,10 0,9 -6,10l0 6z"/>
   <path class="fil20" d="M1953 1548c0,-1 1,-2 1,-2l2 -6c3,-9 -2,-4 4,-9 -11,2 -9,-4 -16,20 7,5 -7,5 3,0 0,0 2,-1 2,-2 1,-1 2,-1 2,-2 -3,8 -6,12 -3,15 6,9 -12,-6 3,4l8 -4c4,-1 -1,-1 -1,-3 0,-1 -1,-1 -2,-1 11,-2 2,-1 8,-5 1,0 1,0 2,-1l3 -2c1,-1 2,0 3,-1 -18,4 -4,-6 -19,-1z"/>
   <path class="fil21" d="M2221 1532l6 -5c3,-1 4,0 9,1 -4,-5 2,-3 -9,-7l1 -8c-6,7 0,3 -6,6 -5,-4 -3,-6 -11,-9 8,14 13,7 10,22z"/>
  </g>
  <rect class="fil7" x="2199" y="1496" width="52.3441" height="53.1248"/>
  <ellipse class="fil3" cx="1138" cy="2360" rx="98" ry="109"/>
  <ellipse class="fil3" cx="1254" cy="2270" rx="136" ry="134"/>
  <ellipse class="fil3" cx="1376" cy="2165" rx="157" ry="112"/>
  <ellipse class="fil3" cx="1436" cy="2132" rx="106" ry="119"/>
  <ellipse class="fil3" cx="1255" cy="2013" rx="42" ry="116"/>
  <ellipse class="fil3" cx="1270" cy="1909" rx="59" ry="41"/>
  <ellipse class="fil3" transform="matrix(0.610367 -0.792119 0.792119 0.610367 1355.85 2002.66)" rx="84" ry="139"/>
 </g>
</svg>
