<?xml version="1.0"?>
<svg xmlns="http://www.w3.org/2000/svg" height="512px" viewBox="0 -48 511.99934 511" width="512px"><path d="m509.460938 7.148438c-2.785157-4.15625-7.457032-6.648438-12.460938-6.648438h-103.722656c-6.222656 0-11.796875 3.839844-14.015625 9.652344l-83.480469 218.765625-40.941406-176.71875c-6.867188-29.644531-32.9375-50.347657-63.394532-50.347657h-176.453124c-7.902344 0-14.441407 6.132813-14.960938 14.015626-.515625 7.886718 5.175781 14.824218 13.011719 15.859374.414062.054688 41.867187 5.714844 92.539062 28.078126 8.292969 3.660156 17.152344 7.925781 26.335938 12.851562l86.167969 332.492188c1.714843 6.617187 7.6875 11.238281 14.523437 11.238281h105.753906c6.082031 0 11.5625-3.671875 13.875-9.296875l158.632813-385.886719c1.902344-4.628906 1.375-9.898437-1.410156-14.054687zm-392.917969 24.707031h74.902343c16.417969 0 30.46875 11.148437 34.167969 27.113281l13.195313 56.964844c-10.835938-11.417969-22.597656-22.175782-35.238282-32.214844-25.574218-20.304688-54.773437-37.71875-86.792968-51.761719-.078125-.035156-.15625-.070312-.234375-.101562zm0 0" fill="#FFFFFF"/></svg>
