<?xml version="1.0"?>
<svg xmlns="http://www.w3.org/2000/svg" height="512px" viewBox="-7 0 407 407.39474" width="512px"><path d="m281.964844 225.886719v57.050781c.019531 16.558594 13.441406 29.980469 30 30h80.261718v-117.050781h-80.261718c-16.558594.019531-29.980469 13.441406-30 30zm0 0" fill="#FFFFFF"/><path d="m293.574219 30c0-9.742188-4.734375-18.878906-12.6875-24.5-7.957031-5.621094-18.148438-7.03125-27.332031-3.777344l-208.625 73.898438h248.644531zm0 0" fill="#FFFFFF"/><path d="m362.226562 95.625h-362.027343v281.769531c.015625 16.5625 13.4375 29.980469 30 30h332.027343c16.5625-.019531 29.980469-13.4375 30-30v-44.457031h-80.261718c-27.601563-.03125-49.96875-22.398438-50-50v-57.050781c.03125-27.601563 22.398437-49.96875 50-50h80.261718v-50.261719c-.019531-16.558594-13.4375-29.980469-30-30zm0 0" fill="#FFFFFF"/></svg>
